<?xml version="1.0" encoding="iso-8859-1"?>
<?xml-stylesheet type="text/css" href="../css/custom.css" ?>
<svg class="pacman-stroke" xmlns="http://www.w3.org/2000/svg" viewBox="0 0 70 70" height="175" width="500">
	<a href="https://www.w3schools.com/graphics/svg_intro.asp" target="_blank">
		<text class="pacman-text" x="39.44" y="32">I love SVG!</text>
	</a>
	<path class="pacman" d="M46.585,7.908C41.486,2.809,34.706,0,27.494,0S13.501,2.809,8.402,7.908c-10.527,10.527-10.527,27.656,0,38.184
		c5.1,5.1,11.88,7.908,19.092,7.908s13.992-2.809,19.092-7.908l0.707-0.707L28.908,27L47.292,8.615L46.585,7.908z M24.494,17
		c-2.206,0-4-1.794-4-4s1.794-4,4-4s4,1.794,4,4S26.699,17,24.494,17z"/>
</svg>
